# AST/ASF file generated using VICON BodyLanguage
# -----------------------------------------------
:version 1.10
:name VICON
:units
  mass 1.0
  length 0.45
  angle deg
:documentation
   .ast/.asf automatically generated from VICON data using
   VICON BodyBuilder and BodyLanguage model FoxedUp or BRILLIANT.MOD
:root
   order TX TY TZ RX RY RZ
   axis XYZ
   position 0 0 0  
   orientation 0 0 0 
:bonedata
  begin
     id 1 
     name lhipjoint
     direction 0.646657 -0.683706 0.338203 
     length 2.4948 
     axis 0 0 0  XYZ
  end
  begin
     id 2 
     name lfemur
     direction 0.34202 -0.939693 0  
     length 6.79491  
     axis 0 0 20  XYZ
    dof rx ry rz
    limits (-160.0 20.0)
           (-70.0 70.0)
           (-60.0 70.0)
  end
  begin
     id 3 
     name ltibia
     direction 0.34202 -0.939693 0   
     length 7.56807   
     axis 0 0 20   XYZ
    dof rx
    limits (-10.0 170.0)
  end
  begin
     id 4 
     name lfoot
     direction 0.0679796 -0.186772 0.980048   
     length 2.53018   
     axis -90 7.62852e-016 20   XYZ
    dof rx rz
    limits (-45.0 90.0)
           (-70.0 20.0)
  end
  begin
     id 5 
     name ltoes
     direction 1.53625e-011 -4.21881e-011 1   
     length 1.26912   
     axis -90 7.62852e-016 20   XYZ
    dof rx
    limits (-90.0 20.0)
  end
  begin
     id 6 
     name rhipjoint
     direction -0.618868 -0.704065 0.348274   
     length 2.42265  
     axis 0 0 0  XYZ 
  end
  begin
     id 7 
     name rfemur
     direction -0.34202 -0.939693 0   
     length 6.73814   
     axis 0 0 -20   XYZ
    dof rx ry rz
    limits (-160.0 20.0)
           (-70.0 70.0)
           (-70.0 60.0)
  end
  begin
     id 8 
     name rtibia
     direction -0.34202 -0.939693 0   
     length 7.66799   
     axis 0 0 -20   XYZ
    dof rx
    limits (-10.0 170.0)
 end
 begin
     id 9 
     name rfoot
     direction -0.0727352 -0.199838 0.977125   
     length 2.57224  
     axis -90 -7.62852e-016 -20   XYZ
    dof rx rz
    limits (-45.0 90.0)
           (-20.0 70.0)
  end
  begin
     id 10 
     name rtoes
     direction -1.53501e-011 -4.21858e-011 1   
     length 1.28858   
     axis -90 -7.62852e-016 -20   XYZ
    dof rx
    limits (-90.0 20.0)
  end
  begin
     id 11 
     name lowerback
     direction -0.0172471 0.995767 -0.0902851   
     length 2.20206   
     axis 0 0 0   XYZ
    dof rx ry rz
    limits (-20.0 45.0)
           (-30.0 30.0)
           (-30.0 30.0)
  end
  begin
     id 12 
     name upperback
     direction -0.000110737 0.999714 0.0239043   
     length 2.19523   
     axis 0 0 0   XYZ
    dof rx ry rz
    limits (-20.0 45.0)
           (-30.0 30.0)
           (-30.0 30.0)
  end
  begin
     id 13 
     name thorax
     direction 0.00704869 0.997783 0.0661741   
     length 2.21977   
     axis 0 0 0   XYZ
    dof rx ry rz
    limits (-20.0 45.0)
           (-30.0 30.0)
           (-30.0 30.0)
  end
  begin
     id 14 
     name lowerneck
     direction -0.00407501 0.995527 0.0943846   
     length 1.83142   
     axis 0 0 0   XYZ
    dof rx ry rz
    limits (-20.0 45.0)
           (-30.0 30.0)
           (-30.0 30.0)
  end
  begin
     id 15 
     name upperneck
     direction 0.0640586 0.986486 -0.150807   
     length 1.84616   
     axis 0 0 0   XYZ
    dof rx ry rz
    limits (-20.0 45.0)
           (-30.0 30.0)
           (-30.0 30.0)
  end
  begin
     id 16
     name head
     direction 0.0188017 0.99791 -0.0618239  
     length 1.85932  
     axis 0 0 0   XYZ
    dof rx ry rz
    limits (-20.0 45.0)
           (-30.0 30.0)
           (-30.0 30.0)
  end
  begin
     id 17 
     name lclavicle
     direction 0.976074 0.206905 0.066852  
     length 3.81043  
     axis 0 0 0   XYZ
    dof ry rz
    limits (-20.0 10.0)
           (0.0 20.0)
  end
  begin
     id 18 
     name lhumerus
     direction 1 -4.48971e-011 1.86916e-027   
     length 5.37587   
     axis 180 -30 -90   XYZ
    dof rx ry rz
    limits (-60.0 90.0)
           (-90.0 90.0)
           (-90.0 90.0)
  end
  begin
     id 19
     name lradius
     direction 1 -4.48968e-011 1.69187e-027   
     length 3.35977   
     axis 180 -30 -90   XYZ
    dof rx
    limits (-10.0 170.0)
  end
  begin
     id 20
     name lwrist
     direction 1 -4.48968e-011 5.8978e-027   
     length 1.67988   
     axis -3.27506e-015 90 90   XYZ
    dof ry
    limits (-180.0 0.0)
 end
  begin
     id 21 
     name lhand
     direction 1 -4.49028e-011 1.18071e-026   
     length 0.561859   
     axis -7.52654e-015 90 90   XYZ
    dof rx rz
    limits (-90.0 90.0)
           (-45.0 45.0)
  end
  begin
     id 22 
     name lfingers
     direction 1 -4.48927e-011 2.35758e-026   
     length 0.452985   
     axis -1.50534e-014 90 90   XYZ
    dof rx
    limits (0.0 90.0)
  end
  begin
     id 23
     name lthumb
     direction 0.707107 -6.34898e-011 0.707107   
     length 0.650399   
     axis -90 45 5.69224e-014   XYZ
    dof rx rz
    limits (-45.0 45.0)
           (-45.0 45.0)
  end
  begin
     id 24 
     name rclavicle
     direction -0.988403 0.151789 0.00439714   
     length 3.6942  
     axis 0 0 0   XYZ 
    dof ry rz
    limits (-10.0 20.0)
           (-20.0 0.0)
  end
  begin
     id 25 
     name rhumerus
     direction -1 -4.48978e-011 1.62495e-027  
     length 5.22819   
     axis 180 30 90   XYZ
    dof rx ry rz
    limits (-90.0 60.0)
           (-90.0 90.0)
           (-90.0 90.0)
  end
  begin
     id 26 
     name rradius
     direction -1 -4.48961e-011 3.47796e-027   
     length 3.40764   
     axis 180 30 90   XYZ
    dof rx
    limits (-10.0 170.0)
  end
  begin
     id 27 
     name rwrist
     direction -1 -4.48949e-011 5.89602e-027   
     length 1.70382   
     axis -3.27506e-015 -90 -90   XYZ
    dof ry
    limits (-180.0 0.0)
  end
  begin
     id 28
     name rhand
     direction -1 -4.48977e-011 1.17973e-026   
     length 0.583255   
     axis -7.52654e-015 -90 -90   XYZ
    dof rx rz
    limits (-90.0 90.0)
           (-45.0 45.0)
  end
  begin
     id 29
     name rfingers
     direction -1 -4.49099e-011 2.36408e-026   
     length 0.470235   
     axis -1.50534e-014 -90 -90   XYZ
    dof rx
    limits (0.0 90.0)
  end
  begin
     id 30
     name rthumb
     direction -0.707107 -6.35011e-011 0.707107   
     length 0.675167   
     axis -90 -45 -5.69224e-014   XYZ
    dof rx rz
    limits (-45.0 45.0)
           (-45.0 45.0)
  end
:hierarchy
  begin
    root lhipjoint rhipjoint lowerback
    lhipjoint lfemur
    lfemur ltibia
    ltibia lfoot
    lfoot ltoes
    rhipjoint rfemur
    rfemur rtibia
    rtibia rfoot
    rfoot rtoes
    lowerback upperback
    upperback thorax
    thorax lowerneck lclavicle rclavicle
    lowerneck upperneck
    upperneck head
    lclavicle lhumerus
    lhumerus lradius
    lradius lwrist
    lwrist lhand lthumb
    lhand lfingers
    rclavicle rhumerus
    rhumerus rradius
    rradius rwrist
    rwrist rhand rthumb
    rhand rfingers
  end

#!OML:ASF G:\JayActor3\Patient Classification 1\Patient 1\Session 2\male.ASF
:FULLY-SPECIFIED
:DEGREES
705
root 5.40781 16.6704 -5.65226 804.355 -97.1307 -804.571
lowerback -2.03007 -2.89118 -7.02371
upperback -4.30739 -3.92949 0.668022
thorax -2.82027 -1.77912 4.62399
lowerneck -11.2412 4.08408 4.35656
upperneck 11.5383 3.87575 5.75181
head 5.31176 2.44511 1.39432
rclavicle -2.5842e-015 7.95139e-015
rhumerus -54.4528 33.0616 -100.292
rradius 113.187
rwrist -17.3056
rhand -16.7538 17.0363
rfingers 7.12502
rthumb 9.47288 -12.7308
lclavicle -2.5842e-015 7.95139e-015
lhumerus -47.9037 -22.688 101.079
lradius 97.7588
lwrist 16.8402
lhand -12.2999 10.1798
lfingers 7.12502
lthumb 13.7679 39.7042
rfemur -32.2913 7.69812 16.9756
rtibia 31.5819
rfoot -17.2117 -8.88813
rtoes 8.49559
lfemur 23.2446 13.3639 -29.3241
ltibia 4.13472e-014
lfoot -1.53238 -12.2558
ltoes -9.43094
706
root 5.27619 16.6796 -5.65511 805.266 -96.9812 -805.394
lowerback -2.18155 -2.91201 -6.88066
upperback -4.32743 -3.94622 0.710344
thorax -2.75887 -1.7935 4.57974
lowerneck -10.8453 4.31056 4.46017
upperneck 10.5903 4.24442 5.78919
head 4.94739 2.60018 1.39058
rclavicle -3.26007e-014 1.59028e-015
rhumerus -54.4696 32.8694 -100.245
rradius 113.115
rwrist -17.2717
rhand -16.7664 17.0378
rfingers 7.12502
rthumb 9.46072 -12.7299
lclavicle -3.26007e-014 1.59028e-015
lhumerus -48.1563 -22.6733 101.561
lradius 97.3319
lwrist 16.7728
lhand -12.3163 10.1034
lfingers 7.12502
lthumb 13.7522 39.6289
rfemur -32.2029 7.46368 17.2072
rtibia 31.7792
rfoot -16.2486 -9.63657
rtoes 9.74428
lfemur 23.6048 13.1647 -29.0953
ltibia -1.90833e-014
lfoot -1.18245 -12.1427
ltoes -9.9926
707
root 5.14396 16.6919 -5.65644 805.999 -96.8137 -806.036
lowerback -2.33648 -2.9158 -6.70287
upperback -4.35115 -3.9407 0.759629
thorax -2.70378 -1.79734 4.52359
lowerneck -10.4671 4.53049 4.53067
upperneck 9.63062 4.6053 5.85322
head 4.58323 2.75021 1.39748
rclavicle -1.72943e-014 -7.95139e-015
rhumerus -54.5 32.6647 -100.186
rradius 113.015
rwrist -17.2474
rhand -16.7894 17.038
rfingers 7.12502
rthumb 9.4385 -12.7307
lclavicle -1.72943e-014 -7.95139e-015
lhumerus -48.3898 -22.663 102.037
lradius 96.8839
lwrist 16.7672
lhand -12.4342 10.0475
lfingers 7.12502
lthumb 13.6386 39.5806
rfemur -32.1096 7.18354 17.4634
rtibia 31.9682
rfoot -15.2967 -10.163
rtoes 10.9771
lfemur 23.9613 12.9909 -28.8542
ltibia -5.725e-014
lfoot -0.785066 -11.9746
ltoes -10.731
708
root 5.01141 16.7051 -5.65651 806.413 -96.6544 -806.358
lowerback -2.49704 -2.89873 -6.52275
upperback -4.37647 -3.90785 0.811203
thorax -2.65063 -1.78745 4.46881
lowerneck -10.1121 4.74296 4.57081
upperneck 8.67133 4.95664 5.93642
head 4.22374 2.89433 1.41251
rclavicle 1.78906e-015 1.66979e-014
rhumerus -54.5397 32.4562 -100.112
rradius 112.887
rwrist -17.2319
rhand -16.8153 17.0414
rfingers 7.12502
rthumb 9.41352 -12.7284
lclavicle 1.78906e-015 1.66979e-014
lhumerus -48.6114 -22.6574 102.503
lradius 96.4248
lwrist 16.8284
lhand -12.651 10.0066
lfingers 7.12502
lthumb 13.4296 39.5537
rfemur -31.9872 6.86116 17.7284
rtibia 32.1779
rfoot -14.4315 -10.4555
rtoes 11.9418
lfemur 24.315 12.8598 -28.6267
ltibia -4.77083e-014
lfoot -0.323032 -11.7557
ltoes -11.5363
709
root 4.87853 16.7187 -5.65575 806.443 -96.5294 -806.293
lowerback -2.66654 -2.86007 -6.37178
upperback -4.4059 -3.8467 0.858114
thorax -2.5989 -1.76257 4.42581
lowerneck -9.8101 4.93741 4.50005
upperneck 7.41991 5.3074 5.98629
head 4.18046 3.01447 1.57535
rclavicle 4.73108e-014 1.03368e-014
rhumerus -54.595 32.247 -100.031
rradius 112.737
rwrist -17.2233
rhand -16.8561 17.0372
rfingers 7.12502
rthumb 9.3742 -12.7343
lclavicle 4.73108e-014 1.03368e-014
lhumerus -48.8387 -22.6593 102.958
lradius 95.9684
lwrist 16.9481
lhand -12.9587 9.97894
lfingers 7.12502
lthumb 13.133 39.5454
rfemur -31.8325 6.49555 17.9805
rtibia 32.4294
rfoot -13.6917 -10.5205
rtoes 12.5226
lfemur 24.6619 12.7777 -28.4397
ltibia 5.08889e-014
lfoot 0.218736 -11.494
ltoes -12.3571
710
root 4.74478 16.733 -5.65485 806.109 -96.448 -805.865
lowerback -2.84663 -2.80244 -6.26481
upperback -4.43945 -3.76049 0.8969
thorax -2.54664 -1.72404 4.39932
lowerneck -9.47823 5.12522 4.49931
upperneck 6.52457 5.62484 6.08207
head 3.78619 3.14218 1.58554
rclavicle -6.67916e-014 0
rhumerus -54.667 32.0367 -99.9485
rradius 112.569
rwrist -17.2214
rhand -16.8997 17.0318
rfingers 7.12502
rthumb 9.33213 -12.7416
lclavicle -6.67916e-014 0
lhumerus -49.084 -22.6736 103.402
lradius 95.5258
lwrist 17.1199
lhand -13.3443 9.9582
lfingers 7.12502
lthumb 12.7613 39.5482
rfemur -31.6448 6.10988 18.2035
rtibia 32.723
rfoot -13.1092 -10.366
rtoes 12.8977
lfemur 25.0032 12.7398 -28.2985
ltibia -1.01778e-013
lfoot 0.854998 -11.1936
ltoes -13.125
711
root 4.60941 16.7482 -5.65437 805.448 -96.4046 -805.122
lowerback -3.03132 -2.72832 -6.19757
upperback -4.47764 -3.65276 0.926231
thorax -2.4977 -1.67362 4.38603
lowerneck -9.13428 5.29291 4.49863
upperneck 5.63702 5.91757 6.1593
head 3.39899 3.2554 1.58598
rclavicle -2.70347e-014 -1.66979e-014
rhumerus -54.7627 31.8269 -99.8758
rradius 112.39
rwrist -17.2122
rhand -16.9481 17.0269
rfingers 7.12502
rthumb 9.28538 -12.7486
lclavicle -2.70347e-014 -1.66979e-014
lhumerus -49.3629 -22.7049 103.835
lradius 95.1082
lwrist 17.3263
lhand -13.7824 9.94416
lfingers 7.12502
lthumb 12.3389 39.5601
rfemur -31.4165 5.73421 18.3949
rtibia 33.0395
rfoot -12.6736 -10.0255
rtoes 13.2985
lfemur 25.3505 12.74 -28.1906
ltibia 3.49861e-014
lfoot 1.59261 -10.8608
ltoes -13.8082
712
root 4.47207 16.7652 -5.65462 804.55 -96.3794 -804.165
lowerback -3.20824 -2.64161 -6.1497
upperback -4.51968 -3.52932 0.948145
thorax -2.45844 -1.61453 4.37727
lowerneck -8.80801 5.44103 4.48577
upperneck 4.80199 6.18061 6.24532
head 3.03876 3.3545 1.59069
rclavicle -3.47873e-014 1.11319e-014
rhumerus -54.8801 31.6199 -99.8217
rradius 112.201
rwrist -17.1866
rhand -17.0118 17.0291
rfingers 7.12502
rthumb 9.224 -12.7491
lclavicle -3.47873e-014 1.11319e-014
lhumerus -49.6838 -22.7559 104.255
lradius 94.7242
lwrist 17.5489
lhand -14.2394 9.9351
lfingers 7.12502
lthumb 11.8983 39.577
rfemur -31.1318 5.40179 18.5646
rtibia 33.3454
rfoot -12.3579 -9.55786
rtoes 13.8159
lfemur 25.7155 12.766 -28.0877
ltibia -4.45278e-014
lfoot 2.44224 -10.4994
ltoes -14.3716
713
root 4.33274 16.7844 -5.65569 803.579 -96.3474 -803.173
lowerback -3.36119 -2.54911 -6.09523
upperback -4.5618 -3.40007 0.965006
thorax -2.43392 -1.55222 4.36138
lowerneck -8.50965 5.57027 4.46199
upperneck 4.03861 6.41236 6.34982
head 2.7126 3.43999 1.60386
rclavicle 2.50469e-014 -1.98785e-014
rhumerus -55.0151 31.4158 -99.792
rradius 112.005
rwrist -17.1368
rhand -17.0873 17.0415
rfingers 7.12502
rthumb 9.15113 -12.74
lclavicle 2.50469e-014 -1.98785e-014
lhumerus -50.0445 -22.8319 104.655
lradius 94.3786
lwrist 17.7797
lhand -14.6877 9.92904
lfingers 7.12502
lthumb 11.4659 39.5955
rfemur -30.766 5.13011 18.7311
rtibia 33.6084
rfoot -12.1384 -9.02125
rtoes 14.4846
lfemur 26.111 12.7969 -27.9587
ltibia 9.54166e-015
lfoot 3.40168 -10.1145
ltoes -14.8299
714
root 4.19167 16.8059 -5.65765 802.702 -96.2958 -802.318
lowerback -3.48162 -2.45756 -6.02411
upperback -4.60338 -3.27449 0.97849
thorax -2.4274 -1.49156 4.33445
lowerneck -8.23393 5.6793 4.44897
upperneck 3.35111 6.61073 6.44986
head 2.42117 3.51076 1.61456
rclavicle 3.08116e-014 4.77083e-015
rhumerus -55.1615 31.2167 -99.784
rradius 111.808
rwrist -17.0571
rhand -17.1738 17.0749
rfingers 7.12502
rthumb 9.06764 -12.7102
lclavicle 3.08116e-014 4.77083e-015
lhumerus -50.4422 -22.9348 105.035
lradius 94.0749
lwrist 18.0126
lhand -15.0922 9.92976
lfingers 7.12502
lthumb 11.0758 39.6175
rfemur -30.3034 4.93235 18.8999
rtibia 33.8037
rfoot -11.9962 -8.48079
rtoes 15.2806
lfemur 26.5395 12.8118 -27.7897
ltibia -1.90833e-014
lfoot 4.47239 -9.70905
ltoes -15.1814
715
root 4.04931 16.8292 -5.66046 802.133 -96.2181 -801.811
lowerback -3.56794 -2.37619 -5.93486
upperback -4.64635 -3.16501 0.98956
thorax -2.44019 -1.43874 4.29624
lowerneck -7.99968 5.77101 4.42798
upperneck 2.76253 6.77781 6.56654
head 2.17318 3.56962 1.6347
rclavicle -2.92213e-014 -3.18055e-015
rhumerus -55.318 31.0306 -99.7983
rradius 111.619
rwrist -16.9495
rhand -17.2681 17.1253
rfingers 7.12502
rthumb 8.97665 -12.6638
lclavicle -2.92213e-014 -3.18055e-015
lhumerus -50.8719 -23.0612 105.393
lradius 93.8153
lwrist 18.2452
lhand -15.4277 9.93594
lfingers 7.12502
lthumb 10.7522 39.6408
rfemur -29.7415 4.79678 19.0717
rtibia 33.9207
rfoot -11.919 -7.97766
rtoes 16.1733
lfemur 26.994 12.7865 -27.5799
ltibia -8.5875e-014
lfoot 5.65224 -9.28587
ltoes -15.4672
716
root 3.90565 16.8539 -5.66425 802.071 -96.1113 -801.841
lowerback -3.63616 -2.3116 -5.83281
upperback -4.69012 -3.07925 0.999804
thorax -2.46148 -1.39785 4.25025
lowerneck -7.79833 5.84606 4.40647
upperneck 2.26167 6.91603 6.68541
head 1.96281 3.61726 1.65803
rclavicle 3.37934e-015 -2.38542e-014
rhumerus -55.4759 30.8624 -99.8251
rradius 111.445
rwrist -16.8199
rhand -17.366 17.1885
rfingers 7.12502
rthumb 8.88221 -12.6046
lclavicle 3.37934e-015 -2.38542e-014
lhumerus -51.3242 -23.2125 105.732
lradius 93.6007
lwrist 18.4914
lhand -15.6863 9.94329
lfingers 7.12502
lthumb 10.5027 39.6609
rfemur -29.0908 4.70543 19.2478
rtibia 33.9607
rfoot -11.9019 -7.54245
rtoes 17.1669
lfemur 27.4603 12.6998 -27.3328
ltibia 3.18055e-014
lfoot 6.93845 -8.83221
ltoes -15.6407
717
root 3.76062 16.8791 -5.66912 802.706 -95.9836 -802.58
lowerback -3.70632 -2.26909 -5.73178
upperback -4.73917 -3.0232 1.00793
thorax -2.48363 -1.37181 4.20191
lowerneck -7.63164 5.90461 4.38416
upperneck 1.85274 7.02542 6.8031
head 1.79098 3.65416 1.68395
rclavicle 7.95139e-016 -1.74931e-014
rhumerus -55.6345 30.7154 -99.8609
rradius 111.298
rwrist -16.6883
rhand -17.4788 17.2567
rfingers 7.12502
rthumb 8.77336 -12.541
lclavicle 7.95139e-016 -1.74931e-014
lhumerus -51.7988 -23.3815 106.054
lradius 93.4347
lwrist 18.7422
lhand -15.8533 9.95146
lfingers 7.12502
lthumb 10.3417 39.6772
rfemur -28.3758 4.63333 19.421
rtibia 33.9346
rfoot -11.9397 -7.19429
rtoes 18.2357
lfemur 27.9197 12.536 -27.0649
ltibia -6.36111e-015
lfoot 8.33059 -8.34609
ltoes -15.6527
